<?xml version="1.0" encoding="utf-8"?>
<!-- Generator: Adobe Illustrator 23.0.5, SVG Export Plug-In . SVG Version: 6.00 Build 0)  -->
<svg version="1.1" id="Layer_1" xmlns="http://www.w3.org/2000/svg" xmlns:xlink="http://www.w3.org/1999/xlink" x="0px" y="0px"
	 viewBox="0 0 300 100" style="enable-background:new 0 0 300 100;" xml:space="preserve">
<style type="text/css">
	.st0{fill:#FFFFFF;fill-opacity:0.8;}
	.st1{fill:#595959;}
	.st2{fill:#23BDEE;}
	.st3{clip-path:url(#SVGID_2_);}
	.st4{fill:#FFFFFF;}
</style>
<g>
	<path class="st0" d="M20,0h260c11,0,20,9,20,20v60c0,11-9,20-20,20H20C9,100,0,91,0,80V20C0,9,9,0,20,0z"/>
</g>
<path class="st1" d="M123.1,41.5V44h-11.4v-2.3l5.8-6.2c0.7-0.7,1.2-1.4,1.5-2c0.3-0.6,0.5-1.2,0.5-1.8c0-0.8-0.2-1.3-0.7-1.7
	c-0.4-0.4-1.1-0.6-1.9-0.6c-1.5,0-3,0.6-4.6,1.8l-1-2.3c0.7-0.6,1.5-1.1,2.6-1.4c1.1-0.4,2.1-0.6,3.2-0.6c1.7,0,3,0.4,4,1.2
	c1,0.8,1.5,2,1.5,3.4c0,1-0.2,1.9-0.6,2.8c-0.4,0.8-1.1,1.8-2.1,2.9l-4.2,4.4H123.1z M133,33.2c1.1,0,2,0.2,2.8,0.7
	c0.8,0.4,1.4,1.1,1.9,1.9c0.4,0.8,0.7,1.8,0.7,2.8c0,1.1-0.3,2.1-0.8,3c-0.5,0.8-1.2,1.5-2.2,2c-0.9,0.5-2,0.7-3.3,0.7
	c-1.1,0-2.1-0.2-3.1-0.5c-1-0.4-1.9-0.8-2.5-1.4l1-2.3c1.5,1.2,3.1,1.8,4.7,1.8c1.1,0,1.9-0.3,2.4-0.8c0.6-0.5,0.8-1.3,0.8-2.3
	c0-0.9-0.3-1.7-0.9-2.2c-0.6-0.6-1.3-0.8-2.3-0.8c-0.7,0-1.3,0.1-1.9,0.4c-0.6,0.2-1.1,0.6-1.6,1.1H127v-10h10.6v2.4H130V34
	C130.8,33.5,131.8,33.2,133,33.2z M147,44.2c-2,0-3.5-0.7-4.6-2.2c-1.1-1.5-1.6-3.6-1.6-6.5c0-2.8,0.5-4.9,1.6-6.4
	c1.1-1.5,2.6-2.2,4.6-2.2s3.5,0.7,4.6,2.2c1.1,1.5,1.6,3.6,1.6,6.4c0,2.8-0.5,5-1.6,6.5C150.5,43.5,149,44.2,147,44.2z M147,41.8
	c1.1,0,1.9-0.5,2.4-1.5c0.5-1,0.7-2.6,0.7-4.8c0-2.2-0.2-3.7-0.7-4.7c-0.5-1-1.3-1.5-2.4-1.5s-1.9,0.5-2.4,1.5
	c-0.5,1-0.7,2.5-0.7,4.7c0,2.2,0.2,3.8,0.7,4.8C145.1,41.3,145.9,41.8,147,41.8z M168,44h-3.7l-5-5.4V44h-3V27.1h3v10.3l4.7-5.1h3.6
	l-5.3,5.6L168,44z"/>
<g>
	<g>
		<path d="M111.3,66.8l5.7-12.4h1.3l5.7,12.4h-1.4l-5.2-11.6h0.5l-5.2,11.6H111.3z M113.5,63.4l0.4-1.1h7.2l0.4,1.1H113.5z"/>
		<path d="M128.1,66.8c-0.8,0-1.5-0.1-2.2-0.3c-0.7-0.2-1.2-0.5-1.6-0.8l0.6-1c0.4,0.3,0.9,0.5,1.4,0.7s1.2,0.3,1.9,0.3
			c0.9,0,1.5-0.1,1.9-0.4c0.4-0.3,0.6-0.6,0.6-1.1c0-0.3-0.1-0.6-0.3-0.8s-0.5-0.3-0.9-0.4c-0.4-0.1-0.7-0.2-1.2-0.3
			s-0.9-0.2-1.3-0.2c-0.4-0.1-0.8-0.2-1.2-0.4c-0.4-0.2-0.6-0.4-0.9-0.8c-0.2-0.3-0.3-0.7-0.3-1.3c0-0.5,0.1-1,0.4-1.4
			c0.3-0.4,0.7-0.7,1.2-0.9c0.5-0.2,1.2-0.3,2-0.3c0.6,0,1.2,0.1,1.8,0.2s1.1,0.4,1.5,0.6l-0.5,1c-0.4-0.3-0.9-0.5-1.3-0.6
			c-0.5-0.1-0.9-0.2-1.4-0.2c-0.8,0-1.5,0.1-1.8,0.4c-0.4,0.3-0.6,0.7-0.6,1.1c0,0.4,0.1,0.6,0.3,0.8s0.5,0.4,0.9,0.5
			c0.4,0.1,0.8,0.2,1.2,0.3c0.4,0.1,0.9,0.2,1.3,0.3c0.4,0.1,0.8,0.2,1.2,0.4c0.4,0.2,0.6,0.4,0.9,0.7c0.2,0.3,0.3,0.7,0.3,1.2
			c0,0.5-0.1,1-0.5,1.4s-0.7,0.7-1.3,0.9C129.7,66.7,129,66.8,128.1,66.8z"/>
		<path d="M136.8,66.8c-0.8,0-1.5-0.1-2.2-0.3c-0.7-0.2-1.2-0.5-1.6-0.8l0.6-1c0.4,0.3,0.9,0.5,1.4,0.7s1.2,0.3,1.9,0.3
			c0.9,0,1.5-0.1,1.9-0.4c0.4-0.3,0.6-0.6,0.6-1.1c0-0.3-0.1-0.6-0.3-0.8s-0.5-0.3-0.9-0.4c-0.4-0.1-0.7-0.2-1.2-0.3
			s-0.9-0.2-1.3-0.2c-0.4-0.1-0.8-0.2-1.2-0.4c-0.4-0.2-0.6-0.4-0.9-0.8c-0.2-0.3-0.3-0.7-0.3-1.3c0-0.5,0.1-1,0.4-1.4
			c0.3-0.4,0.7-0.7,1.2-0.9c0.5-0.2,1.2-0.3,2-0.3c0.6,0,1.2,0.1,1.8,0.2s1.1,0.4,1.5,0.6l-0.5,1c-0.4-0.3-0.9-0.5-1.3-0.6
			c-0.5-0.1-0.9-0.2-1.4-0.2c-0.8,0-1.5,0.1-1.8,0.4c-0.4,0.3-0.6,0.7-0.6,1.1c0,0.4,0.1,0.6,0.3,0.8s0.5,0.4,0.9,0.5
			c0.4,0.1,0.8,0.2,1.2,0.3c0.4,0.1,0.9,0.2,1.3,0.3c0.4,0.1,0.8,0.2,1.2,0.4c0.4,0.2,0.6,0.4,0.9,0.7c0.2,0.3,0.3,0.7,0.3,1.2
			c0,0.5-0.1,1-0.5,1.4s-0.7,0.7-1.3,0.9C138.3,66.7,137.6,66.8,136.8,66.8z"/>
		<path d="M143.5,55.4c-0.3,0-0.5-0.1-0.7-0.3c-0.2-0.2-0.3-0.4-0.3-0.6c0-0.2,0.1-0.5,0.3-0.6c0.2-0.2,0.4-0.3,0.7-0.3
			c0.3,0,0.5,0.1,0.7,0.2c0.2,0.2,0.3,0.4,0.3,0.6c0,0.3-0.1,0.5-0.3,0.7C144,55.3,143.8,55.4,143.5,55.4z M142.9,66.8v-9.3h1.3v9.3
			H142.9z"/>
		<path d="M150.1,66.8c-0.8,0-1.5-0.1-2.2-0.3c-0.7-0.2-1.2-0.5-1.6-0.8l0.6-1c0.4,0.3,0.9,0.5,1.4,0.7s1.2,0.3,1.9,0.3
			c0.9,0,1.5-0.1,1.9-0.4c0.4-0.3,0.6-0.6,0.6-1.1c0-0.3-0.1-0.6-0.3-0.8s-0.5-0.3-0.9-0.4c-0.4-0.1-0.7-0.2-1.2-0.3
			s-0.9-0.2-1.3-0.2c-0.4-0.1-0.8-0.2-1.2-0.4c-0.4-0.2-0.6-0.4-0.9-0.8c-0.2-0.3-0.3-0.7-0.3-1.3c0-0.5,0.1-1,0.4-1.4
			c0.3-0.4,0.7-0.7,1.2-0.9c0.5-0.2,1.2-0.3,2-0.3c0.6,0,1.2,0.1,1.8,0.2s1.1,0.4,1.5,0.6l-0.5,1c-0.4-0.3-0.9-0.5-1.3-0.6
			c-0.5-0.1-0.9-0.2-1.4-0.2c-0.8,0-1.5,0.1-1.8,0.4c-0.4,0.3-0.6,0.7-0.6,1.1c0,0.4,0.1,0.6,0.3,0.8s0.5,0.4,0.9,0.5
			c0.4,0.1,0.8,0.2,1.2,0.3c0.4,0.1,0.9,0.2,1.3,0.3s0.8,0.2,1.2,0.4s0.6,0.4,0.9,0.7c0.2,0.3,0.3,0.7,0.3,1.2c0,0.5-0.2,1-0.4,1.4
			c-0.3,0.4-0.7,0.7-1.3,0.9C151.6,66.7,150.9,66.8,150.1,66.8z"/>
		<path d="M154.8,58.5v-1h5.7v1H154.8z M159.2,66.8c-0.9,0-1.5-0.2-2-0.7c-0.5-0.5-0.7-1.1-0.7-2v-8.7h1.3v8.6c0,0.5,0.1,1,0.4,1.3
			c0.3,0.3,0.7,0.4,1.2,0.4c0.6,0,1-0.2,1.4-0.5l0.4,0.9c-0.2,0.2-0.5,0.4-0.9,0.5C159.9,66.8,159.6,66.8,159.2,66.8z"/>
		<path d="M167.4,66.8c-1,0-1.8-0.2-2.5-0.6c-0.7-0.4-1.3-1-1.7-1.7c-0.4-0.7-0.6-1.5-0.6-2.4s0.2-1.7,0.6-2.4
			c0.4-0.7,0.9-1.3,1.6-1.7c0.7-0.4,1.5-0.6,2.3-0.6c0.9,0,1.6,0.2,2.3,0.6s1.2,0.9,1.6,1.7c0.4,0.7,0.6,1.5,0.6,2.5
			c0,0.1,0,0.1,0,0.2s0,0.1,0,0.2h-8.1v-0.9h7.4l-0.5,0.4c0-0.7-0.1-1.3-0.4-1.8c-0.3-0.5-0.7-0.9-1.2-1.2c-0.5-0.3-1.1-0.4-1.7-0.4
			c-0.6,0-1.2,0.1-1.7,0.4c-0.5,0.3-0.9,0.7-1.2,1.2c-0.3,0.5-0.4,1.1-0.4,1.8v0.2c0,0.7,0.2,1.3,0.5,1.9c0.3,0.5,0.7,1,1.3,1.3
			c0.6,0.3,1.2,0.5,1.9,0.5c0.6,0,1.1-0.1,1.6-0.3c0.5-0.2,0.9-0.5,1.3-0.9l0.7,0.8c-0.4,0.5-0.9,0.9-1.5,1.1
			C168.8,66.7,168.1,66.8,167.4,66.8z"/>
		<path d="M177.8,66.8c-0.9,0-1.7-0.2-2.4-0.6c-0.7-0.4-1.3-1-1.7-1.7c-0.4-0.7-0.6-1.5-0.6-2.5c0-0.9,0.2-1.8,0.6-2.5
			c0.4-0.7,1-1.3,1.7-1.7c0.7-0.4,1.5-0.6,2.4-0.6c0.8,0,1.5,0.2,2.2,0.5c0.6,0.4,1.2,0.9,1.5,1.6s0.6,1.6,0.6,2.6
			c0,1-0.2,1.9-0.6,2.6c-0.4,0.7-0.9,1.2-1.5,1.6S178.6,66.8,177.8,66.8z M177.9,65.7c0.7,0,1.3-0.2,1.8-0.5
			c0.5-0.3,0.9-0.7,1.2-1.3c0.3-0.5,0.5-1.2,0.5-1.9c0-0.7-0.1-1.4-0.5-1.9c-0.3-0.5-0.7-1-1.2-1.3c-0.5-0.3-1.1-0.5-1.8-0.5
			c-0.6,0-1.2,0.2-1.7,0.5c-0.5,0.3-0.9,0.7-1.2,1.3c-0.3,0.5-0.5,1.2-0.5,1.9c0,0.7,0.2,1.4,0.5,1.9c0.3,0.5,0.7,1,1.2,1.3
			C176.6,65.6,177.2,65.7,177.9,65.7z M181.4,66.8V64l0.1-1.9l-0.2-1.9v-6.6h1.3v13.1H181.4z"/>
		<path d="M195.9,66.9c-1.6,0-2.8-0.5-3.7-1.4c-0.9-0.9-1.4-2.2-1.4-4v-7.1h1.3v7c0,1.5,0.3,2.5,1,3.2c0.7,0.7,1.6,1,2.8,1
			c1.2,0,2.1-0.3,2.8-1c0.7-0.7,1-1.8,1-3.2v-7h1.3v7.1c0,1.8-0.5,3.1-1.4,4C198.8,66.4,197.5,66.9,195.9,66.9z"/>
		<path d="M207.2,66.8c-0.8,0-1.5-0.1-2.2-0.3c-0.7-0.2-1.2-0.5-1.6-0.8l0.6-1c0.4,0.3,0.9,0.5,1.4,0.7c0.6,0.2,1.2,0.3,1.9,0.3
			c0.9,0,1.5-0.1,1.9-0.4c0.4-0.3,0.6-0.6,0.6-1.1c0-0.3-0.1-0.6-0.3-0.8c-0.2-0.2-0.5-0.3-0.9-0.4c-0.4-0.1-0.7-0.2-1.2-0.3
			s-0.9-0.2-1.3-0.2s-0.8-0.2-1.2-0.4c-0.4-0.2-0.6-0.4-0.9-0.8c-0.2-0.3-0.3-0.7-0.3-1.3c0-0.5,0.1-1,0.4-1.4
			c0.3-0.4,0.7-0.7,1.2-0.9c0.5-0.2,1.2-0.3,2-0.3c0.6,0,1.2,0.1,1.8,0.2c0.6,0.2,1.1,0.4,1.5,0.6l-0.5,1c-0.4-0.3-0.9-0.5-1.3-0.6
			c-0.5-0.1-0.9-0.2-1.4-0.2c-0.8,0-1.5,0.1-1.8,0.4c-0.4,0.3-0.6,0.7-0.6,1.1c0,0.4,0.1,0.6,0.3,0.8s0.5,0.4,0.9,0.5
			c0.4,0.1,0.8,0.2,1.2,0.3c0.4,0.1,0.9,0.2,1.3,0.3s0.8,0.2,1.2,0.4c0.4,0.2,0.6,0.4,0.9,0.7c0.2,0.3,0.3,0.7,0.3,1.2
			c0,0.5-0.2,1-0.5,1.4s-0.7,0.7-1.3,0.9C208.7,66.7,208,66.8,207.2,66.8z"/>
		<path d="M217.2,66.8c-1,0-1.8-0.2-2.5-0.6c-0.7-0.4-1.3-1-1.7-1.7c-0.4-0.7-0.6-1.5-0.6-2.4s0.2-1.7,0.6-2.4
			c0.4-0.7,0.9-1.3,1.6-1.7c0.7-0.4,1.5-0.6,2.3-0.6c0.9,0,1.6,0.2,2.3,0.6s1.2,0.9,1.6,1.7c0.4,0.7,0.6,1.5,0.6,2.5
			c0,0.1,0,0.1,0,0.2s0,0.1,0,0.2h-8.1v-0.9h7.4l-0.5,0.4c0-0.7-0.1-1.3-0.4-1.8c-0.3-0.5-0.7-0.9-1.2-1.2c-0.5-0.3-1.1-0.4-1.7-0.4
			c-0.6,0-1.2,0.1-1.7,0.4c-0.5,0.3-0.9,0.7-1.2,1.2c-0.3,0.5-0.4,1.1-0.4,1.8v0.2c0,0.7,0.2,1.3,0.5,1.9c0.3,0.5,0.7,1,1.3,1.3
			c0.6,0.3,1.2,0.5,1.9,0.5c0.6,0,1.1-0.1,1.6-0.3c0.5-0.2,0.9-0.5,1.3-0.9l0.7,0.8c-0.4,0.5-0.9,0.9-1.5,1.1
			C218.7,66.7,218,66.8,217.2,66.8z"/>
		<path d="M224,66.8v-9.3h1.2V60l-0.1-0.4c0.3-0.7,0.7-1.2,1.3-1.6c0.6-0.4,1.4-0.6,2.3-0.6v1.2c0,0-0.1,0-0.1,0c0,0-0.1,0-0.1,0
			c-1,0-1.7,0.3-2.3,0.9s-0.8,1.4-0.8,2.5v4.7H224z"/>
		<path d="M233.5,66.8c-0.8,0-1.5-0.1-2.2-0.3c-0.7-0.2-1.2-0.5-1.6-0.8l0.6-1c0.4,0.3,0.9,0.5,1.4,0.7c0.6,0.2,1.2,0.3,1.9,0.3
			c0.9,0,1.5-0.1,1.9-0.4c0.4-0.3,0.6-0.6,0.6-1.1c0-0.3-0.1-0.6-0.3-0.8c-0.2-0.2-0.5-0.3-0.9-0.4c-0.4-0.1-0.7-0.2-1.2-0.3
			s-0.9-0.2-1.3-0.2s-0.8-0.2-1.2-0.4c-0.4-0.2-0.6-0.4-0.9-0.8c-0.2-0.3-0.3-0.7-0.3-1.3c0-0.5,0.1-1,0.4-1.4
			c0.3-0.4,0.7-0.7,1.2-0.9c0.5-0.2,1.2-0.3,2-0.3c0.6,0,1.2,0.1,1.8,0.2c0.6,0.2,1.1,0.4,1.5,0.6l-0.5,1c-0.4-0.3-0.9-0.5-1.3-0.6
			c-0.5-0.1-0.9-0.2-1.4-0.2c-0.8,0-1.5,0.1-1.8,0.4c-0.4,0.3-0.6,0.7-0.6,1.1c0,0.4,0.1,0.6,0.3,0.8s0.5,0.4,0.9,0.5
			c0.4,0.1,0.8,0.2,1.2,0.3c0.4,0.1,0.9,0.2,1.3,0.3s0.8,0.2,1.2,0.4c0.4,0.2,0.6,0.4,0.9,0.7c0.2,0.3,0.3,0.7,0.3,1.2
			c0,0.5-0.2,1-0.5,1.4s-0.7,0.7-1.3,0.9C235,66.7,234.3,66.8,233.5,66.8z"/>
		<path d="M239.8,66.8c-0.3,0-0.5-0.1-0.7-0.3c-0.2-0.2-0.3-0.4-0.3-0.7c0-0.3,0.1-0.5,0.3-0.7c0.2-0.2,0.4-0.3,0.7-0.3
			s0.5,0.1,0.7,0.3c0.2,0.2,0.3,0.4,0.3,0.7c0,0.3-0.1,0.5-0.3,0.7S240,66.8,239.8,66.8z"/>
	</g>
</g>
<path class="st2" d="M36,25h34c4.4,0,8,3.6,8,8v34c0,4.4-3.6,8-8,8H36c-4.4,0-8-3.6-8-8V33C28,28.6,31.6,25,36,25z"/>
<g>
	<defs>
		<rect id="SVGID_1_" x="39.3" y="36.3" width="27.5" height="27.5"/>
	</defs>
	<clipPath id="SVGID_2_">
		<use xlink:href="#SVGID_1_"  style="overflow:visible;"/>
	</clipPath>
	<g class="st3">
		<path class="st4" d="M46.1,36.3c-0.5,0-1,0.4-1,1v2h2v-2C47.1,36.7,46.7,36.3,46.1,36.3z"/>
		<path class="st4" d="M59.9,36.3c-0.5,0-1,0.4-1,1v2h2v-2C60.9,36.7,60.4,36.3,59.9,36.3z"/>
		<path class="st4" d="M63.8,39.2h-2.9v3.9c0,0.5-0.4,1-1,1c-0.5,0-1-0.4-1-1v-3.9H47.1v3.9c0,0.5-0.4,1-1,1c-0.5,0-1-0.4-1-1v-3.9
			h-2.9c-1.6,0-2.9,1.3-2.9,2.9v18.7c0,1.6,1.3,2.9,2.9,2.9h21.6c1.6,0,2.9-1.3,2.9-2.9V42.1C66.8,40.5,65.4,39.2,63.8,39.2z
			 M64.8,60.8c0,0.5-0.4,1-1,1H42.2c-0.5,0-1-0.4-1-1V48h23.6V60.8z"/>
		<path class="st4" d="M47.1,50h-2c-0.5,0-1,0.4-1,1c0,0.5,0.4,1,1,1h2c0.5,0,1-0.4,1-1C48.1,50.4,47.6,50,47.1,50z"/>
		<path class="st4" d="M54,50h-2c-0.5,0-1,0.4-1,1c0,0.5,0.4,1,1,1h2c0.5,0,1-0.4,1-1C55,50.4,54.5,50,54,50z"/>
		<path class="st4" d="M60.9,50h-2c-0.5,0-1,0.4-1,1c0,0.5,0.4,1,1,1h2c0.5,0,1-0.4,1-1C61.8,50.4,61.4,50,60.9,50z"/>
		<path class="st4" d="M47.1,53.9h-2c-0.5,0-1,0.4-1,1c0,0.5,0.4,1,1,1h2c0.5,0,1-0.4,1-1C48.1,54.4,47.6,53.9,47.1,53.9z"/>
		<path class="st4" d="M54,53.9h-2c-0.5,0-1,0.4-1,1c0,0.5,0.4,1,1,1h2c0.5,0,1-0.4,1-1C55,54.4,54.5,53.9,54,53.9z"/>
		<path class="st4" d="M60.9,53.9h-2c-0.5,0-1,0.4-1,1c0,0.5,0.4,1,1,1h2c0.5,0,1-0.4,1-1C61.8,54.4,61.4,53.9,60.9,53.9z"/>
		<path class="st4" d="M47.1,57.9h-2c-0.5,0-1,0.4-1,1c0,0.5,0.4,1,1,1h2c0.5,0,1-0.4,1-1C48.1,58.3,47.6,57.9,47.1,57.9z"/>
		<path class="st4" d="M54,57.9h-2c-0.5,0-1,0.4-1,1c0,0.5,0.4,1,1,1h2c0.5,0,1-0.4,1-1C55,58.3,54.5,57.9,54,57.9z"/>
		<path class="st4" d="M60.9,57.9h-2c-0.5,0-1,0.4-1,1c0,0.5,0.4,1,1,1h2c0.5,0,1-0.4,1-1C61.8,58.3,61.4,57.9,60.9,57.9z"/>
	</g>
</g>
</svg>
