<?xml version="1.0" encoding="utf-8"?>
<!-- Generator: Adobe Illustrator 23.0.5, SVG Export Plug-In . SVG Version: 6.00 Build 0)  -->
<svg version="1.1" id="Layer_1" xmlns="http://www.w3.org/2000/svg" xmlns:xlink="http://www.w3.org/1999/xlink" x="0px" y="0px"
	 viewBox="0 0 390 187" style="enable-background:new 0 0 390 187;" xml:space="preserve">
<style type="text/css">
	.st0{fill:#FFFFFF;fill-opacity:0.8;}
	.st1{fill:#545567;}
	.st2{fill:#D8587E;}
	.st3{fill:#FFFFFF;}
	.st4{fill:none;}
	.st5{fill:#2EBB5E;stroke:#FBECD7;stroke-width:2;}
</style>
<g>
	<path class="st0" d="M20,0h350c11,0,20,9,20,20v147c0,11-9,20-20,20H20c-11,0-20-9-20-20V20C0,9,9,0,20,0z"/>
</g>
<g>
	<g>
		<path d="M110,47.8V33h-5.8v-2.7H119V33h-5.8v14.7H110z"/>
		<path d="M121.2,47.8V34.4h3v3.7l-0.3-1.1c0.4-0.9,1-1.6,1.9-2.1c0.9-0.5,1.9-0.7,3.2-0.7v3c-0.1,0-0.2,0-0.3,0c-0.1,0-0.2,0-0.3,0
			c-1.2,0-2.1,0.3-2.8,1c-0.7,0.7-1,1.7-1,3.1v6.4H121.2z"/>
		<path d="M135.7,47.9c-1,0-1.9-0.2-2.6-0.5c-0.7-0.3-1.3-0.8-1.7-1.4c-0.4-0.6-0.6-1.3-0.6-2.1c0-0.7,0.2-1.4,0.5-2
			c0.4-0.6,0.9-1.1,1.8-1.4c0.8-0.3,1.9-0.5,3.2-0.5h3.9V42h-3.6c-1,0-1.8,0.2-2.1,0.5s-0.6,0.8-0.6,1.3c0,0.5,0.2,1,0.7,1.3
			c0.4,0.3,1.1,0.5,1.9,0.5c0.8,0,1.5-0.2,2.1-0.5c0.6-0.3,1.1-0.9,1.3-1.5l0.5,1.9c-0.3,0.8-0.8,1.4-1.6,1.8
			C137.8,47.7,136.9,47.9,135.7,47.9z M139.9,47.8V45l-0.1-0.5v-4.7c0-0.9-0.3-1.6-0.8-2.1c-0.6-0.5-1.4-0.8-2.5-0.8
			c-0.7,0-1.5,0.1-2.2,0.3s-1.3,0.6-1.8,1l-1.2-2.3c0.7-0.5,1.6-1,2.6-1.2c1-0.3,2-0.4,3.1-0.4c1.9,0,3.4,0.5,4.5,1.4
			c1,0.9,1.6,2.4,1.6,4.3v7.8H139.9z"/>
		<path d="M150.9,47.9c-1.1,0-2.2-0.1-3.2-0.4c-1-0.3-1.8-0.6-2.4-1.1l1.2-2.4c0.6,0.4,1.3,0.7,2.1,0.9c0.8,0.2,1.7,0.4,2.5,0.4
			c1,0,1.7-0.1,2.1-0.4c0.4-0.3,0.7-0.6,0.7-1.1c0-0.4-0.1-0.6-0.4-0.8c-0.3-0.2-0.7-0.3-1.2-0.4c-0.5-0.1-1-0.2-1.6-0.3
			c-0.6-0.1-1.2-0.2-1.8-0.3c-0.6-0.1-1.1-0.3-1.6-0.6c-0.5-0.3-0.9-0.6-1.2-1.1c-0.3-0.5-0.4-1.1-0.4-1.9c0-0.8,0.2-1.6,0.7-2.2
			c0.5-0.6,1.2-1.1,2-1.5s1.9-0.5,3.1-0.5c0.9,0,1.8,0.1,2.7,0.3c0.9,0.2,1.7,0.5,2.3,0.9l-1.2,2.4c-0.6-0.4-1.2-0.6-1.9-0.8
			c-0.6-0.1-1.3-0.2-1.9-0.2c-0.9,0-1.6,0.1-2.1,0.4c-0.5,0.3-0.7,0.6-0.7,1.1c0,0.4,0.1,0.7,0.4,0.9c0.3,0.2,0.7,0.4,1.2,0.5
			c0.5,0.1,1,0.2,1.6,0.3c0.6,0.1,1.2,0.2,1.8,0.3c0.6,0.1,1.1,0.3,1.6,0.6c0.5,0.3,0.9,0.6,1.2,1.1c0.3,0.5,0.4,1.1,0.4,1.8
			c0,0.8-0.2,1.6-0.7,2.2c-0.5,0.6-1.2,1.1-2.1,1.4C153.2,47.8,152.2,47.9,150.9,47.9z"/>
		<path d="M167.2,34.2c1.1,0,2,0.2,2.9,0.6c0.8,0.4,1.5,1.1,2,1.9c0.5,0.9,0.7,2,0.7,3.3v7.6h-3.1v-7.2c0-1.2-0.3-2.1-0.8-2.6
			c-0.5-0.6-1.3-0.9-2.3-0.9c-0.7,0-1.4,0.1-1.9,0.4s-1,0.7-1.3,1.3c-0.3,0.6-0.5,1.3-0.5,2.2v6.7h-3.1V29.2h3.1V38l-0.6-1.1
			c0.4-0.8,1.1-1.5,2-2C165,34.5,166,34.2,167.2,34.2z"/>
		<path d="M183.9,47.8V30.3h7.2c1.5,0,2.9,0.2,4,0.7c1.1,0.5,2,1.2,2.6,2.1c0.6,0.9,0.9,2,0.9,3.3c0,1.3-0.3,2.4-0.9,3.3
			c-0.6,0.9-1.5,1.6-2.6,2.1c-1.1,0.5-2.4,0.8-4,0.8h-5.4l1.4-1.5v6.5H183.9z M187.2,41.6l-1.4-1.6h5.2c1.4,0,2.5-0.3,3.2-0.9
			c0.7-0.6,1.1-1.5,1.1-2.6s-0.4-2-1.1-2.6c-0.7-0.6-1.8-0.9-3.2-0.9h-5.2l1.4-1.6V41.6z"/>
		<path d="M203.3,32.2c-0.6,0-1.1-0.2-1.4-0.5c-0.4-0.4-0.6-0.8-0.6-1.3c0-0.5,0.2-0.9,0.6-1.3c0.4-0.4,0.9-0.5,1.4-0.5
			c0.6,0,1.1,0.2,1.4,0.5c0.4,0.3,0.6,0.8,0.6,1.3c0,0.5-0.2,1-0.5,1.4C204.4,32,203.9,32.2,203.3,32.2z M201.8,47.8V34.4h3.1v13.3
			H201.8z"/>
		<path d="M215.1,47.9c-1.4,0-2.6-0.3-3.7-0.9c-1.1-0.6-1.9-1.4-2.6-2.4c-0.6-1-0.9-2.2-0.9-3.5c0-1.3,0.3-2.5,0.9-3.5
			c0.6-1,1.5-1.8,2.6-2.4c1.1-0.6,2.3-0.9,3.7-0.9c1.3,0,2.4,0.3,3.4,0.8s1.7,1.3,2.2,2.3l-2.4,1.4c-0.4-0.6-0.9-1.1-1.5-1.4
			c-0.6-0.3-1.2-0.5-1.9-0.5c-0.8,0-1.5,0.2-2.1,0.5c-0.6,0.3-1.1,0.8-1.4,1.4c-0.3,0.6-0.5,1.4-0.5,2.2s0.2,1.6,0.5,2.2
			c0.3,0.6,0.8,1.1,1.4,1.5c0.6,0.3,1.3,0.5,2.1,0.5c0.7,0,1.3-0.2,1.9-0.5c0.6-0.3,1.1-0.8,1.5-1.4l2.4,1.4c-0.5,1-1.2,1.8-2.2,2.3
			C217.5,47.7,216.4,47.9,215.1,47.9z"/>
		<path d="M223.5,47.8V29.2h3.1v18.5H223.5z M226,44.8l0.1-3.9l7-6.4h3.7l-5.9,5.9l-1.7,1.4L226,44.8z M233.6,47.8l-4.9-6l2-2.5
			l6.7,8.5H233.6z"/>
		<path d="M245,47.9c-1.1,0-2.1-0.2-3-0.6c-0.9-0.4-1.5-1.1-2-1.9s-0.7-2-0.7-3.3v-7.6h3.1v7.2c0,1.2,0.3,2.1,0.8,2.7
			c0.5,0.6,1.3,0.9,2.3,0.9c0.7,0,1.4-0.1,1.9-0.4c0.5-0.3,1-0.7,1.3-1.3c0.3-0.6,0.4-1.3,0.4-2.2v-6.7h3.1v13.3h-3v-3.6l0.5,1.1
			c-0.4,0.8-1.1,1.5-2,2C247,47.7,246,47.9,245,47.9z"/>
		<path d="M256.4,52.6V34.4h3v3.1l-0.1,3.5l0.3,3.5v7.9H256.4z M263.8,47.9c-1.1,0-2.1-0.2-3-0.7c-0.9-0.5-1.6-1.2-2.1-2.3
			c-0.5-1-0.8-2.3-0.8-3.8c0-1.6,0.2-2.9,0.7-3.9c0.5-1,1.2-1.8,2.1-2.2c0.9-0.5,1.9-0.7,3-0.7c1.3,0,2.5,0.3,3.5,0.8
			s1.8,1.4,2.4,2.4c0.6,1,0.9,2.2,0.9,3.6c0,1.4-0.3,2.6-0.9,3.6c-0.6,1-1.4,1.8-2.4,2.4C266.2,47.6,265.1,47.9,263.8,47.9z
			 M263.4,45.3c0.8,0,1.4-0.2,2-0.5s1.1-0.8,1.4-1.5c0.3-0.6,0.5-1.4,0.5-2.2c0-0.8-0.2-1.6-0.5-2.2c-0.3-0.6-0.8-1.1-1.4-1.4
			c-0.6-0.3-1.3-0.5-2-0.5c-0.7,0-1.4,0.2-2,0.5c-0.6,0.3-1.1,0.8-1.4,1.4c-0.3,0.6-0.5,1.4-0.5,2.2c0,0.8,0.2,1.6,0.5,2.2
			c0.3,0.6,0.8,1.1,1.4,1.5S262.7,45.3,263.4,45.3z"/>
	</g>
</g>
<path class="st1" d="M110.1,79V66.6h-5v-1.7h12.1v1.7h-5V79H110.1z M121.7,79.2c-1,0-1.8-0.2-2.6-0.6s-1.3-1-1.7-1.7
	c-0.4-0.8-0.6-1.7-0.6-2.7s0.2-1.9,0.6-2.7c0.4-0.8,1-1.3,1.7-1.8s1.6-0.6,2.6-0.6c1,0,1.8,0.2,2.5,0.6s1.3,1,1.7,1.8
	c0.4,0.7,0.6,1.6,0.6,2.7s-0.2,1.9-0.6,2.7c-0.4,0.7-1,1.3-1.7,1.7S122.7,79.2,121.7,79.2z M121.7,77.6c0.8,0,1.5-0.3,2-0.9
	c0.5-0.6,0.8-1.5,0.8-2.6s-0.3-2-0.8-2.6c-0.5-0.6-1.2-0.9-2-0.9c-0.8,0-1.5,0.3-2,0.9c-0.5,0.6-0.8,1.4-0.8,2.6s0.3,2,0.8,2.6
	C120.2,77.3,120.9,77.6,121.7,77.6z M132.9,79.2c-0.9,0-1.6-0.2-2.3-0.6c-0.6-0.4-1.1-1-1.5-1.8s-0.5-1.7-0.5-2.7s0.2-1.9,0.5-2.7
	c0.4-0.8,0.9-1.3,1.5-1.8s1.4-0.6,2.3-0.6c0.7,0,1.4,0.2,2,0.5c0.6,0.3,1,0.8,1.3,1.3v-5.9h2V79h-2v-1.7c-0.3,0.6-0.7,1-1.3,1.4
	C134.3,79,133.7,79.2,132.9,79.2z M133.5,77.6c0.8,0,1.5-0.3,2-0.9c0.5-0.6,0.8-1.5,0.8-2.6s-0.3-2-0.8-2.6c-0.5-0.6-1.2-0.9-2-0.9
	c-0.8,0-1.5,0.3-2,0.9c-0.5,0.6-0.8,1.4-0.8,2.6s0.3,2,0.8,2.6C131.9,77.3,132.6,77.6,133.5,77.6z M144.5,79.2
	c-0.7,0-1.3-0.1-1.8-0.4c-0.5-0.3-1-0.6-1.3-1.1c-0.3-0.5-0.5-1-0.5-1.5c0-0.7,0.2-1.3,0.5-1.7c0.4-0.4,1-0.7,1.8-0.9
	c0.9-0.2,2-0.3,3.4-0.3h0.7v-0.5c0-0.8-0.2-1.3-0.5-1.6c-0.3-0.3-0.8-0.5-1.6-0.5c-0.6,0-1.1,0.1-1.7,0.3c-0.6,0.2-1.1,0.4-1.7,0.8
	l-0.6-1.4c0.5-0.4,1.1-0.6,1.9-0.9c0.8-0.2,1.5-0.3,2.2-0.3c1.3,0,2.3,0.3,3,1c0.6,0.6,1,1.6,1,3v6h-1.9v-1.6
	c-0.2,0.6-0.6,1-1.1,1.3C145.9,79,145.3,79.2,144.5,79.2z M144.9,77.7c0.7,0,1.3-0.3,1.8-0.8c0.5-0.5,0.7-1.1,0.7-1.9v-0.5h-0.7
	c-1,0-1.7,0-2.3,0.1c-0.5,0.1-0.9,0.3-1.2,0.5c-0.2,0.2-0.3,0.5-0.3,0.9c0,0.5,0.2,0.9,0.5,1.2C143.9,77.6,144.3,77.7,144.9,77.7z
	 M153.5,82.6l1.7-3.9l-4.1-9.5h2.2l3,7.4l3-7.4h2.1l-5.8,13.4H153.5z M172,79.2c-0.7,0-1.3-0.1-1.8-0.4c-0.5-0.3-1-0.6-1.3-1.1
	c-0.3-0.5-0.5-1-0.5-1.5c0-0.7,0.2-1.3,0.5-1.7c0.4-0.4,1-0.7,1.8-0.9c0.9-0.2,2-0.3,3.4-0.3h0.7v-0.5c0-0.8-0.2-1.3-0.5-1.6
	c-0.3-0.3-0.8-0.5-1.6-0.5c-0.6,0-1.1,0.1-1.7,0.3c-0.6,0.2-1.1,0.4-1.7,0.8l-0.6-1.4c0.5-0.4,1.1-0.6,1.9-0.9
	c0.8-0.2,1.5-0.3,2.2-0.3c1.3,0,2.3,0.3,3,1c0.6,0.6,1,1.6,1,3v6H175v-1.6c-0.2,0.6-0.6,1-1.1,1.3C173.4,79,172.7,79.2,172,79.2z
	 M172.4,77.7c0.7,0,1.3-0.3,1.8-0.8c0.5-0.5,0.7-1.1,0.7-1.9v-0.5h-0.7c-1,0-1.7,0-2.3,0.1c-0.5,0.1-0.9,0.3-1.2,0.5
	c-0.2,0.2-0.3,0.5-0.3,0.9c0,0.5,0.2,0.9,0.5,1.2C171.3,77.6,171.8,77.7,172.4,77.7z M184.2,79.2c-1.2,0-2.1-0.3-2.7-0.9
	c-0.6-0.6-0.9-1.5-0.9-2.7v-4.7h-1.9v-1.6h1.9v-2.9h2v2.9h3v1.6h-3v4.6c0,0.7,0.1,1.2,0.4,1.6c0.3,0.4,0.8,0.5,1.5,0.5
	c0.2,0,0.4,0,0.6-0.1c0.2-0.1,0.4-0.1,0.6-0.2l0.3,1.5c-0.2,0.1-0.5,0.2-0.8,0.3C184.9,79.1,184.5,79.2,184.2,79.2z M194.3,79v-1.7
	h3.2v-10l-2.5,1.6l-0.8-1.5l3.9-2.4h1.5v12.4h3V79H194.3z M206.1,79v-1.5l4.7-5c0.7-0.7,1.1-1.3,1.4-1.9c0.3-0.6,0.4-1.2,0.4-1.7
	c0-1.5-0.9-2.3-2.7-2.3c-1.4,0-2.6,0.5-3.7,1.5l-0.7-1.6c0.5-0.5,1.2-0.9,2-1.2c0.8-0.3,1.7-0.5,2.6-0.5c1.5,0,2.6,0.3,3.3,1
	c0.8,0.7,1.2,1.6,1.2,2.9c0,0.8-0.2,1.7-0.6,2.5c-0.4,0.8-1,1.7-1.9,2.6l-3.5,3.7h6.6V79H206.1z M218,79v-2.4h2.4V79H218z
	 M227.9,79.2c-1.6,0-2.9-0.6-3.8-1.9c-0.9-1.3-1.3-3-1.3-5.4c0-2.4,0.4-4.2,1.3-5.4c0.9-1.2,2.1-1.8,3.8-1.8c1.7,0,2.9,0.6,3.8,1.8
	c0.9,1.2,1.3,3,1.3,5.4c0,2.3-0.4,4.1-1.3,5.4C230.8,78.6,229.6,79.2,227.9,79.2z M227.9,77.5c1,0,1.8-0.4,2.3-1.3
	c0.5-0.9,0.7-2.3,0.7-4.2s-0.2-3.3-0.7-4.2c-0.5-0.9-1.2-1.3-2.3-1.3c-1,0-1.8,0.4-2.3,1.3c-0.5,0.9-0.7,2.3-0.7,4.2
	c0,1.9,0.2,3.3,0.7,4.2C226.2,77,226.9,77.5,227.9,77.5z M240.3,79.2c-1.6,0-2.9-0.6-3.8-1.9c-0.9-1.3-1.3-3-1.3-5.4
	c0-2.4,0.4-4.2,1.3-5.4c0.9-1.2,2.1-1.8,3.8-1.8c1.7,0,2.9,0.6,3.8,1.8c0.9,1.2,1.3,3,1.3,5.4c0,2.3-0.4,4.1-1.3,5.4
	C243.2,78.6,242,79.2,240.3,79.2z M240.3,77.5c1,0,1.8-0.4,2.3-1.3c0.5-0.9,0.7-2.3,0.7-4.2s-0.2-3.3-0.7-4.2
	c-0.5-0.9-1.2-1.3-2.3-1.3c-1,0-1.8,0.4-2.3,1.3c-0.5,0.9-0.7,2.3-0.7,4.2c0,1.9,0.2,3.3,0.7,4.2C238.6,77,239.3,77.5,240.3,77.5z
	 M254,79V64.9h5.8c1.5,0,2.7,0.4,3.5,1.1c0.8,0.7,1.2,1.8,1.2,3.2c0,1.4-0.4,2.4-1.2,3.2c-0.8,0.7-2,1.1-3.5,1.1h-3.8V79H254z
	 M256.1,71.9h3.5c2,0,3-0.9,3-2.7c0-1.8-1-2.6-3-2.6h-3.5V71.9z M267.3,79V64.9h1.7l5.2,9.7l5.2-9.7h1.7V79h-1.9V68.7l-4.4,8.2h-1.3
	l-4.4-8.1V79H267.3z"/>
<path class="st2" d="M130,109h130c13.8,0,25,11.2,25,25l0,0c0,13.8-11.2,25-25,25H130c-13.8,0-25-11.2-25-25l0,0
	C105,120.2,116.2,109,130,109z"/>
<g>
	<g>
		<path class="st3" d="M158.1,141v-16.4h6.7c1.8,0,3.3,0.3,4.6,1c1.3,0.7,2.3,1.7,3.1,2.9c0.7,1.2,1.1,2.7,1.1,4.3
			c0,1.6-0.4,3-1.1,4.3c-0.7,1.2-1.8,2.2-3.1,2.9c-1.3,0.7-2.9,1-4.6,1H158.1z M159.8,139.5h4.9c1.5,0,2.7-0.3,3.8-0.9
			c1.1-0.6,1.9-1.4,2.5-2.4s0.9-2.2,0.9-3.5c0-1.3-0.3-2.5-0.9-3.5c-0.6-1-1.4-1.8-2.5-2.4c-1.1-0.6-2.3-0.9-3.8-0.9h-4.9V139.5z"/>
		<path class="st3" d="M182.3,141.1c-1.3,0-2.4-0.3-3.4-0.8c-1-0.5-1.7-1.3-2.3-2.2s-0.8-2-0.8-3.2s0.3-2.3,0.8-3.2
			c0.5-0.9,1.2-1.7,2.2-2.2c0.9-0.5,1.9-0.8,3.1-0.8c1.2,0,2.2,0.3,3.1,0.8c0.9,0.5,1.6,1.3,2.1,2.2c0.5,0.9,0.8,2,0.8,3.3
			c0,0.1,0,0.2,0,0.2s0,0.2,0,0.3h-10.7v-1.2h9.8l-0.7,0.5c0-0.9-0.2-1.7-0.6-2.4c-0.4-0.7-0.9-1.2-1.6-1.6s-1.4-0.6-2.3-0.6
			c-0.8,0-1.6,0.2-2.3,0.6c-0.7,0.4-1.2,0.9-1.6,1.6c-0.4,0.7-0.6,1.5-0.6,2.4v0.3c0,0.9,0.2,1.8,0.6,2.5c0.4,0.7,1,1.3,1.7,1.7
			c0.7,0.4,1.6,0.6,2.5,0.6c0.8,0,1.5-0.1,2.1-0.4c0.6-0.3,1.2-0.7,1.7-1.2l0.9,1.1c-0.5,0.7-1.2,1.2-2.1,1.5
			C184.2,141,183.3,141.1,182.3,141.1z"/>
		<path class="st3" d="M189.4,130.1v-1.4h7.6v1.4H189.4z M195.2,141.1c-1.2,0-2-0.3-2.7-0.9c-0.6-0.6-0.9-1.5-0.9-2.7V126h1.7v11.5
			c0,0.7,0.2,1.3,0.6,1.7c0.4,0.4,0.9,0.6,1.6,0.6c0.7,0,1.3-0.2,1.8-0.6l0.6,1.2c-0.3,0.3-0.7,0.5-1.2,0.7
			C196.1,141.1,195.7,141.1,195.2,141.1z"/>
		<path class="st3" d="M204.3,141.1c-0.9,0-1.7-0.2-2.4-0.5c-0.7-0.3-1.2-0.7-1.6-1.3c-0.4-0.5-0.5-1.2-0.5-1.9
			c0-0.6,0.2-1.2,0.5-1.7c0.3-0.5,0.8-0.9,1.5-1.3s1.6-0.5,2.8-0.5h4.2v1.2h-4.2c-1.2,0-2,0.2-2.5,0.6s-0.7,0.9-0.7,1.6
			c0,0.7,0.3,1.3,0.8,1.7c0.5,0.4,1.3,0.6,2.3,0.6c0.9,0,1.7-0.2,2.4-0.6c0.7-0.4,1.2-1.1,1.5-1.9l0.4,1.1c-0.3,0.8-0.9,1.5-1.6,1.9
			C206.4,140.9,205.4,141.1,204.3,141.1z M208.5,141v-2.7l-0.1-0.4v-4.5c0-1-0.3-1.9-0.9-2.4c-0.6-0.6-1.5-0.8-2.6-0.8
			c-0.8,0-1.6,0.1-2.3,0.4c-0.7,0.3-1.3,0.6-1.8,1.1l-0.8-1.2c0.6-0.5,1.4-0.9,2.3-1.2c0.9-0.3,1.8-0.4,2.8-0.4
			c1.6,0,2.8,0.4,3.7,1.2c0.9,0.8,1.3,2,1.3,3.6v7.6H208.5z"/>
		<path class="st3" d="M215.5,126c-0.3,0-0.6-0.1-0.9-0.4c-0.2-0.2-0.4-0.5-0.4-0.8s0.1-0.6,0.4-0.8s0.5-0.3,0.9-0.3
			c0.3,0,0.6,0.1,0.9,0.3c0.2,0.2,0.4,0.5,0.4,0.8c0,0.3-0.1,0.6-0.3,0.9C216.1,125.9,215.8,126,215.5,126z M214.6,141v-12.3h1.7
			V141H214.6z"/>
		<path class="st3" d="M220.9,141v-17.4h1.7V141H220.9z"/>
		<path class="st3" d="M230.6,141.1c-1,0-2-0.1-2.9-0.4s-1.6-0.7-2.1-1.1l0.8-1.3c0.5,0.4,1.1,0.7,1.9,1c0.8,0.3,1.6,0.4,2.5,0.4
			c1.2,0,2-0.2,2.5-0.6c0.5-0.4,0.8-0.9,0.8-1.5c0-0.5-0.1-0.8-0.4-1.1c-0.3-0.3-0.7-0.5-1.1-0.6s-1-0.2-1.6-0.3
			c-0.6-0.1-1.2-0.2-1.7-0.3c-0.6-0.1-1.1-0.3-1.6-0.6c-0.5-0.2-0.8-0.6-1.1-1s-0.4-1-0.4-1.7c0-0.7,0.2-1.3,0.6-1.8
			c0.4-0.5,0.9-0.9,1.7-1.3c0.7-0.3,1.6-0.5,2.7-0.5c0.8,0,1.6,0.1,2.4,0.3c0.8,0.2,1.5,0.5,2,0.8l-0.7,1.3
			c-0.5-0.4-1.1-0.6-1.8-0.8c-0.6-0.2-1.3-0.2-1.9-0.2c-1.1,0-1.9,0.2-2.5,0.6c-0.5,0.4-0.8,0.9-0.8,1.5c0,0.5,0.1,0.8,0.4,1.1
			c0.3,0.3,0.7,0.5,1.1,0.6c0.5,0.1,1,0.3,1.6,0.4c0.6,0.1,1.1,0.2,1.7,0.3c0.6,0.1,1.1,0.3,1.6,0.5c0.5,0.2,0.9,0.5,1.1,1
			s0.4,1,0.4,1.6c0,0.7-0.2,1.3-0.6,1.9c-0.4,0.5-1,0.9-1.7,1.2C232.6,141,231.6,141.1,230.6,141.1z"/>
	</g>
</g>
<circle class="st4" cx="54" cy="54" r="28"/>
<circle class="st5" cx="73" cy="75" r="9"/>
</svg>
